<svg id="SvgjsSvg1021" width="100%" height="100%" xmlns="http://www.w3.org/2000/svg" version="1.1" xlink="http://www.w3.org/1999/xlink" xmlns:svgjs="http://svgjs.com/svgjs" preserveAspectRatio="xMidYMid meet" viewBox="4.086302283212717e-7 -5.828926230577736e-9 300.00006103515625 30.45343017578125" overflow="visible"><defs id="SvgjsDefs1022"><linearGradient id="SvgjsLinearGradient4gZNwQm1O" gradientUnits="userSpaceOnUse" x1="216.79146575927734" y1="294.26651763916016" x2="293.97249603271484" y2="217.08548736572266"><stop id="SvgjsStop1025" stop-color="#858585" offset="0.05"></stop><stop id="SvgjsStop1026" stop-color="#454545" offset="0.95"></stop></linearGradient></defs><g id="SvgjsG1023" transform="scale(0.35443930307383814)" opacity="1"><g id="SvgjsG1027" class="TKy9u_0nJl" transform="translate(-218.74263794055432, -209.24630038370313) scale(0.9864293008151785)" light-content="false" non-strokable="false" fill="url(#SvgjsLinearGradient4gZNwQm1O)"><path d="M279.74 284.237h-6.56v-15.765l15.832-3.827-.134-.853c-1.556-9.891-4.745-18.754-9.48-26.343a59.108 59.108 0 0 0-14.229-15.688c-9.624-7.377-18.3-9.409-18.665-9.492l-.632-.144-5.118 7.759-18.448 23.447-.554.705.68.584c1.006.865 1.943 2.052 1.927 2.438-.159 1.112.976 2.777 2.529 3.709 1.215.73 3.705 1.625 6.718-.577.34-.249.676-.496 1.007-.741 3.253-2.403 5.936-4.382 8.756-4.006.558.488 2.414 2.433 2.204 6.533-.104 2.005-2.483 4.757-5.002 7.67-3.611 4.176-7.704 8.909-7.704 14.072v10.516h-4.202v6.56h-3.625v8.433h58.324v-8.433h-3.626v-6.557h.002zm-10.396-44.588a33.85 33.85 0 0 0-2.184-3.322l5.518-4.853a58.893 58.893 0 0 1 6.526 9.384l-8.015 2.543a31.568 31.568 0 0 0-1.845-3.752zm10.768 2.886a64.137 64.137 0 0 1 3.208 7.216l-10.146 1.924c-.033-.888-.229-3.3-1.324-6.518l8.262-2.622zm-6.931 11.044l10.776-2.043a71.047 71.047 0 0 1 1.398 4.604l-12.175 2.823v-5.384h.001zm0 12.969v-5.663l12.635-2.93a77.18 77.18 0 0 1 1.075 5.278l-13.71 3.315zm-1.74-36.48l-5.437 4.783a40.076 40.076 0 0 0-5.63-5.546l3.849-5.908a56.543 56.543 0 0 1 7.218 6.671zm-12.549-1.916a52.11 52.11 0 0 0-7.022-4.38l3.401-6.055a57.425 57.425 0 0 1 7.449 4.558l-3.828 5.877zM246.71 214.26c1.107.311 3.619 1.101 6.877 2.63l-3.393 6.042a69.264 69.264 0 0 0-7.232-2.99l3.748-5.682zm-11.969 59.461c0-4.466 3.851-8.919 7.249-12.848 2.854-3.301 5.319-6.151 5.455-8.799.127-2.478-.402-4.329-1.061-5.648 2.742.682 6.272-.054 8.759-1.941 2.273-1.725 3.279-4.07 2.832-6.605l-1.844.325c.409 2.318-.927 3.883-2.12 4.789-2.346 1.779-5.913 2.343-8.12 1.283-4.498-2.159-8.331.672-12.388 3.669-.328.242-.661.488-.999.735-1.479 1.081-2.914 1.313-4.264.688-1.24-.573-1.978-1.714-2.021-2.077.148-1.21-1.042-2.627-1.905-3.48l1.348-1.713 2.992 2.529 1.208-1.43-3.042-2.571 15.022-19.094c15.276 5.239 22.469 13.172 25.819 18.943 3.668 6.32 3.648 11.486 3.647 11.55v16.154h-1.913a.937.937 0 0 0 0 1.874h1.913v.717h-1.913a.936.936 0 0 0 0 1.873h1.913v.718h-1.913a.936.936 0 1 0 0 1.873h1.913v.718h-1.913a.936.936 0 1 0 0 1.873h1.913v.717h-1.913a.936.936 0 0 0 0 1.873h1.913v.718h-1.913a.936.936 0 1 0 0 1.873h1.913v1.235h-27.646c-.238-1.325-.656-4.363-.324-7.996.589-6.448 3.142-11.625 7.586-15.386l-1.209-1.429c-4.78 4.044-7.632 9.822-8.247 16.708a32.594 32.594 0 0 0 .292 8.103h-7.019v-10.521zm-4.201 12.388h47.329v4.688H230.54v-4.688zm50.954 6.561v4.688h-54.58v-4.688h54.58z"></path><path d="M245.551 227.146l-.521.166c-.142.045-3.479 1.131-4.588 3.573-.498 1.096-.483 2.265.043 3.476.693 1.594 1.873 1.833 2.515 1.833 1.586 0 3.295-1.418 4.063-3.372.77-1.957.354-3.939-1.112-5.303l-.4-.373zm-.23 4.989c-.514 1.307-1.615 2.185-2.321 2.185-.134 0-.491 0-.798-.707-.31-.713-.329-1.351-.058-1.952.512-1.132 1.975-1.958 2.907-2.358.779 1.044.521 2.195.27 2.832zm29.139 55.382h-40.511a.936.936 0 1 0 0 1.873h40.511a.936.936 0 1 0 0-1.873zm-44.855 8.432h49.2a.936.936 0 1 0 0-1.873h-49.2a.936.936 0 0 0 0 1.873z"></path></g><g id="SvgjsG1028" class="text" transform="translate(405.4972557274412, 63.959999542236325) scale(1)" light-content="false" fill="#454545"><path d="M-283.26 -1.5C-280.76 -0.18 -277.87 0.48 -274.59 0.48C-271.35 0.48 -268.48 -0.16 -265.98 -1.44C-263.48 -2.72 -261.54 -4.52 -260.16 -6.84C-258.78 -9.16 -258.09 -11.8 -258.09 -14.76L-258.09 -22.74C-258.09 -23.5 -258.47 -23.88 -259.23 -23.88L-274.41 -23.88C-275.17 -23.88 -275.55 -23.5 -275.55 -22.74L-275.55 -16.02C-275.55 -15.26 -275.17 -14.88 -274.41 -14.88L-269.55 -14.88C-269.23 -14.88 -269.07 -14.72 -269.07 -14.4L-269.07 -13.8C-269.07 -12.36 -269.54 -11.23 -270.48 -10.41C-271.42 -9.59 -272.63 -9.18 -274.11 -9.18C-275.75 -9.18 -277.12 -9.72 -278.22 -10.8C-279.32 -11.88 -279.87 -13.28 -279.87 -15L-279.87 -27C-279.87 -28.76 -279.39 -30.17 -278.43 -31.23C-277.47 -32.29 -276.19 -32.82 -274.59 -32.82C-272.95 -32.82 -271.66 -32.34 -270.72 -31.38C-269.78 -30.42 -269.31 -29.28 -269.31 -27.96L-269.31 -27.72C-269.31 -27.52 -268.93 -27.42 -268.17 -27.42L-259.23 -27.42C-258.47 -27.42 -258.09 -27.74 -258.09 -28.38C-258.09 -30.94 -258.78 -33.3 -260.16 -35.46C-261.54 -37.62 -263.49 -39.33 -266.01 -40.59C-268.53 -41.85 -271.39 -42.48 -274.59 -42.48C-277.87 -42.48 -280.76 -41.82 -283.26 -40.5C-285.76 -39.18 -287.7 -37.33 -289.08 -34.95C-290.46 -32.57 -291.15 -29.82 -291.15 -26.7L-291.15 -15.36C-291.15 -12.24 -290.46 -9.48 -289.08 -7.08C-287.7 -4.68 -285.76 -2.82 -283.26 -1.5Z M-221.13 -0.84C-220.89 -0.28 -220.45 0 -219.81 0L-210.27 0C-209.63 0 -209.31 -0.24 -209.31 -0.72C-209.31 -0.96 -209.35 -1.16 -209.43 -1.32L-216.75 -16.8C-216.87 -17.08 -216.79 -17.28 -216.51 -17.4C-214.27 -18.36 -212.52 -19.82 -211.26 -21.78C-210 -23.74 -209.37 -26.02 -209.37 -28.62C-209.37 -31.26 -209.94 -33.59 -211.08 -35.61C-212.22 -37.63 -213.82 -39.2 -215.88 -40.32C-217.94 -41.44 -220.33 -42 -223.05 -42L-240.99 -42C-241.75 -42 -242.13 -41.62 -242.13 -40.86L-242.13 -1.14C-242.13 -0.38 -241.75 0 -240.99 0L-231.99 0C-231.23 0 -230.85 -0.38 -230.85 -1.14L-230.85 -15.66C-230.85 -15.98 -230.69 -16.14 -230.37 -16.14L-228.21 -16.14C-227.89 -16.14 -227.69 -16.02 -227.61 -15.78ZM-230.85 -31.86C-230.85 -32.18 -230.69 -32.34 -230.37 -32.34L-224.91 -32.34C-223.63 -32.34 -222.59 -31.99 -221.79 -31.29C-220.99 -30.59 -220.59 -29.66 -220.59 -28.5C-220.59 -27.38 -220.99 -26.47 -221.79 -25.77C-222.59 -25.07 -223.63 -24.72 -224.91 -24.72L-230.37 -24.72C-230.69 -24.72 -230.85 -24.88 -230.85 -25.2Z M-166.17 -0.96C-166.01 -0.32 -165.59 0 -164.91 0L-155.19 0C-154.51 0 -154.17 -0.3 -154.17 -0.9C-154.17 -1.06 -154.19 -1.2 -154.23 -1.32L-166.71 -41.04C-166.91 -41.68 -167.33 -42 -167.97 -42L-180.33 -42C-180.97 -42 -181.39 -41.68 -181.59 -41.04L-194.07 -1.32C-194.19 -0.92 -194.16 -0.6 -193.98 -0.36C-193.8 -0.12 -193.51 0 -193.11 0L-183.39 0C-182.71 0 -182.29 -0.32 -182.13 -0.96L-180.93 -5.28C-180.85 -5.56 -180.67 -5.7 -180.39 -5.7L-167.91 -5.7C-167.63 -5.7 -167.45 -5.56 -167.37 -5.28ZM-178.29 -14.76L-178.29 -14.88L-174.45 -28.74C-174.37 -28.94 -174.26 -29.04 -174.12 -29.04C-173.98 -29.04 -173.89 -28.94 -173.85 -28.74L-170.01 -14.88C-169.97 -14.72 -169.99 -14.59 -170.07 -14.49C-170.15 -14.39 -170.27 -14.34 -170.43 -14.34L-177.87 -14.34C-178.15 -14.34 -178.29 -14.48 -178.29 -14.76Z M-138.39 -1.14C-138.39 -0.38 -138.01 0 -137.25 0L-128.25 0C-127.49 0 -127.11 -0.38 -127.11 -1.14L-127.23 -20.88C-127.23 -21.12 -127.16 -21.25 -127.02 -21.27C-126.88 -21.29 -126.75 -21.2 -126.63 -21L-114.75 -0.78C-114.47 -0.26 -114.01 0 -113.37 0L-104.73 0C-103.97 0 -103.59 -0.38 -103.59 -1.14L-103.59 -40.86C-103.59 -41.62 -103.97 -42 -104.73 -42L-113.73 -42C-114.49 -42 -114.87 -41.62 -114.87 -40.86L-114.81 -21.54C-114.81 -21.26 -114.89 -21.12 -115.05 -21.12C-115.17 -21.12 -115.29 -21.2 -115.41 -21.36L-127.23 -41.22C-127.51 -41.74 -127.97 -42 -128.61 -42L-137.25 -42C-138.01 -42 -138.39 -41.62 -138.39 -40.86Z M-86.91 -1.14C-86.91 -0.38 -86.53 0 -85.77 0L-70.59 0C-67.35 0 -64.48 -0.56 -61.98 -1.68C-59.48 -2.8 -57.55 -4.38 -56.19 -6.42C-54.83 -8.46 -54.15 -10.82 -54.15 -13.5L-54.15 -28.5C-54.15 -31.18 -54.83 -33.54 -56.19 -35.58C-57.55 -37.62 -59.48 -39.2 -61.98 -40.32C-64.48 -41.44 -67.35 -42 -70.59 -42L-85.77 -42C-86.53 -42 -86.91 -41.62 -86.91 -40.86ZM-75.15 -9.66C-75.47 -9.66 -75.63 -9.82 -75.63 -10.14L-75.63 -31.86C-75.63 -32.18 -75.47 -32.34 -75.15 -32.34L-70.23 -32.34C-68.79 -32.34 -67.63 -31.81 -66.75 -30.75C-65.87 -29.69 -65.43 -28.3 -65.43 -26.58L-65.43 -15.42C-65.47 -13.7 -65.93 -12.31 -66.81 -11.25C-67.69 -10.19 -68.81 -9.66 -70.17 -9.66Z M-37.83 -1.14C-37.83 -0.38 -37.45 0 -36.69 0L-27.69 0C-26.93 0 -26.55 -0.38 -26.55 -1.14L-26.55 -22.32C-26.55 -22.6 -26.47 -22.74 -26.31 -22.74C-26.19 -22.74 -26.07 -22.66 -25.95 -22.5L-22.23 -16.32C-21.95 -15.8 -21.49 -15.54 -20.85 -15.54L-16.65 -15.54C-16.01 -15.54 -15.55 -15.8 -15.27 -16.32L-11.55 -22.5C-11.43 -22.7 -11.3 -22.78 -11.16 -22.74C-11.02 -22.7 -10.95 -22.56 -10.95 -22.32L-10.95 -1.14C-10.95 -0.38 -10.57 0 -9.81 0L-0.81 0C-0.05 0 0.33 -0.38 0.33 -1.14L0.33 -40.86C0.33 -41.62 -0.05 -42 -0.81 -42L-9.75 -42C-10.39 -42 -10.85 -41.74 -11.13 -41.22L-18.39 -29.4C-18.47 -29.24 -18.59 -29.16 -18.75 -29.16C-18.91 -29.16 -19.03 -29.24 -19.11 -29.4L-26.37 -41.22C-26.65 -41.74 -27.11 -42 -27.75 -42L-36.69 -42C-37.45 -42 -37.83 -41.62 -37.83 -40.86Z M44.07 -0.96C44.23 -0.32 44.65 0 45.33 0L55.05 0C55.73 0 56.07 -0.3 56.07 -0.9C56.07 -1.06 56.05 -1.2 56.01 -1.32L43.53 -41.04C43.33 -41.68 42.91 -42 42.27 -42L29.91 -42C29.27 -42 28.85 -41.68 28.65 -41.04L16.17 -1.32C16.05 -0.92 16.08 -0.6 16.26 -0.36C16.44 -0.12 16.73 0 17.13 0L26.85 0C27.53 0 27.95 -0.32 28.11 -0.96L29.31 -5.28C29.39 -5.56 29.57 -5.7 29.85 -5.7L42.33 -5.7C42.61 -5.7 42.79 -5.56 42.87 -5.28ZM31.95 -14.76L31.95 -14.88L35.79 -28.74C35.87 -28.94 35.98 -29.04 36.12 -29.04C36.26 -29.04 36.35 -28.94 36.39 -28.74L40.23 -14.88C40.27 -14.72 40.25 -14.59 40.17 -14.49C40.09 -14.39 39.97 -14.34 39.81 -14.34L32.37 -14.34C32.09 -14.34 31.95 -14.48 31.95 -14.76Z M75.87 -1.17C78.35 -0.07 81.21 0.48 84.45 0.48C87.65 0.48 90.48 -0.05 92.94 -1.11C95.4 -2.17 97.31 -3.68 98.67 -5.64C100.03 -7.6 100.71 -9.88 100.71 -12.48C100.71 -15.24 99.87 -17.59 98.19 -19.53C96.51 -21.47 94.42 -22.81 91.92 -23.55C89.42 -24.29 88.01 -24.72 87.69 -24.84C85.37 -25.56 83.65 -26.15 82.53 -26.61C81.41 -27.07 80.58 -27.55 80.04 -28.05C79.5 -28.55 79.23 -29.16 79.23 -29.88C79.23 -30.8 79.6 -31.52 80.34 -32.04C81.08 -32.56 82.09 -32.82 83.37 -32.82C85.21 -32.82 86.67 -32.33 87.75 -31.35C88.83 -30.37 89.37 -29.28 89.37 -28.08L89.37 -27.6C89.37 -27.28 89.75 -27.12 90.51 -27.12L99.33 -27.12C100.09 -27.12 100.47 -27.5 100.47 -28.26L100.47 -28.56C100.47 -31.28 99.74 -33.7 98.28 -35.82C96.82 -37.94 94.82 -39.58 92.28 -40.74C89.74 -41.9 86.91 -42.48 83.79 -42.48C80.83 -42.48 78.16 -41.96 75.78 -40.92C73.4 -39.88 71.53 -38.39 70.17 -36.45C68.81 -34.51 68.13 -32.28 68.13 -29.76C68.13 -25.96 69.47 -23.06 72.15 -21.06C74.83 -19.06 78.15 -17.46 82.11 -16.26L83.85 -15.78C85.97 -15.14 87.43 -14.6 88.23 -14.16C89.03 -13.72 89.43 -13.06 89.43 -12.18C89.43 -11.42 89.11 -10.73 88.47 -10.11C87.83 -9.49 86.77 -9.18 85.29 -9.18C83.53 -9.18 82.07 -9.62 80.91 -10.5C79.75 -11.38 79.17 -12.36 79.17 -13.44L79.17 -14.1C79.17 -14.5 78.79 -14.7 78.03 -14.7L69.21 -14.7C68.45 -14.7 68.07 -14.32 68.07 -13.56L68.07 -12.96C68.07 -10.28 68.75 -7.92 70.11 -5.88C71.47 -3.84 73.39 -2.27 75.87 -1.17Z M148.95 -40.86C148.95 -41.62 148.57 -42 147.81 -42L116.55 -42C115.79 -42 115.41 -41.62 115.41 -40.86L115.41 -33.42C115.41 -32.66 115.79 -32.28 116.55 -32.28L125.91 -32.28C126.23 -32.28 126.39 -32.12 126.39 -31.8L126.39 -1.14C126.39 -0.38 126.77 0 127.53 0L136.53 0C137.29 0 137.67 -0.38 137.67 -1.14L137.67 -31.8C137.67 -32.12 137.83 -32.28 138.15 -32.28L147.81 -32.28C148.57 -32.28 148.95 -32.66 148.95 -33.42Z M193.65 -32.34C194.41 -32.34 194.79 -32.72 194.79 -33.48L194.79 -40.86C194.79 -41.62 194.41 -42 193.65 -42L165.51 -42C164.75 -42 164.37 -41.62 164.37 -40.86L164.37 -1.14C164.37 -0.38 164.75 0 165.51 0L193.65 0C194.41 0 194.79 -0.38 194.79 -1.14L194.79 -8.52C194.79 -9.28 194.41 -9.66 193.65 -9.66L176.13 -9.66C175.81 -9.66 175.65 -9.82 175.65 -10.14L175.65 -16.02C175.65 -16.34 175.81 -16.5 176.13 -16.5L186.81 -16.5C187.57 -16.5 187.95 -16.88 187.95 -17.64L187.95 -24.96C187.95 -25.72 187.57 -26.1 186.81 -26.1L176.13 -26.1C175.81 -26.1 175.65 -26.26 175.65 -26.58L175.65 -31.86C175.65 -32.18 175.81 -32.34 176.13 -32.34Z M231.57 -0.84C231.81 -0.28 232.25 0 232.89 0L242.43 0C243.07 0 243.39 -0.24 243.39 -0.72C243.39 -0.96 243.35 -1.16 243.27 -1.32L235.95 -16.8C235.83 -17.08 235.91 -17.28 236.19 -17.4C238.43 -18.36 240.18 -19.82 241.44 -21.78C242.7 -23.74 243.33 -26.02 243.33 -28.62C243.33 -31.26 242.76 -33.59 241.62 -35.61C240.48 -37.63 238.88 -39.2 236.82 -40.32C234.76 -41.44 232.37 -42 229.65 -42L211.71 -42C210.95 -42 210.57 -41.62 210.57 -40.86L210.57 -1.14C210.57 -0.38 210.95 0 211.71 0L220.71 0C221.47 0 221.85 -0.38 221.85 -1.14L221.85 -15.66C221.85 -15.98 222.01 -16.14 222.33 -16.14L224.49 -16.14C224.81 -16.14 225.01 -16.02 225.09 -15.78ZM221.85 -31.86C221.85 -32.18 222.01 -32.34 222.33 -32.34L227.79 -32.34C229.07 -32.34 230.11 -31.99 230.91 -31.29C231.71 -30.59 232.11 -29.66 232.11 -28.5C232.11 -27.38 231.71 -26.47 230.91 -25.77C230.11 -25.07 229.07 -24.72 227.79 -24.72L222.33 -24.72C222.01 -24.72 221.85 -24.88 221.85 -25.2Z M266.49 -1.17C268.97 -0.07 271.83 0.48 275.07 0.48C278.27 0.48 281.1 -0.05 283.56 -1.11C286.02 -2.17 287.93 -3.68 289.29 -5.64C290.65 -7.6 291.33 -9.88 291.33 -12.48C291.33 -15.24 290.49 -17.59 288.81 -19.53C287.13 -21.47 285.04 -22.81 282.54 -23.55C280.04 -24.29 278.63 -24.72 278.31 -24.84C275.99 -25.56 274.27 -26.15 273.15 -26.61C272.03 -27.07 271.2 -27.55 270.66 -28.05C270.12 -28.55 269.85 -29.16 269.85 -29.88C269.85 -30.8 270.22 -31.52 270.96 -32.04C271.7 -32.56 272.71 -32.82 273.99 -32.82C275.83 -32.82 277.29 -32.33 278.37 -31.35C279.45 -30.37 279.99 -29.28 279.99 -28.08L279.99 -27.6C279.99 -27.28 280.37 -27.12 281.13 -27.12L289.95 -27.12C290.71 -27.12 291.09 -27.5 291.09 -28.26L291.09 -28.56C291.09 -31.28 290.36 -33.7 288.9 -35.82C287.44 -37.94 285.44 -39.58 282.9 -40.74C280.36 -41.9 277.53 -42.48 274.41 -42.48C271.45 -42.48 268.78 -41.96 266.4 -40.92C264.02 -39.88 262.15 -38.39 260.79 -36.45C259.43 -34.51 258.75 -32.28 258.75 -29.76C258.75 -25.96 260.09 -23.06 262.77 -21.06C265.45 -19.06 268.77 -17.46 272.73 -16.26L274.47 -15.78C276.59 -15.14 278.05 -14.6 278.85 -14.16C279.65 -13.72 280.05 -13.06 280.05 -12.18C280.05 -11.42 279.73 -10.73 279.09 -10.11C278.45 -9.49 277.39 -9.18 275.91 -9.18C274.15 -9.18 272.69 -9.62 271.53 -10.5C270.37 -11.38 269.79 -12.36 269.79 -13.44L269.79 -14.1C269.79 -14.5 269.41 -14.7 268.65 -14.7L259.83 -14.7C259.07 -14.7 258.69 -14.32 258.69 -13.56L258.69 -12.96C258.69 -10.28 259.37 -7.92 260.73 -5.88C262.09 -3.84 264.01 -2.27 266.49 -1.17Z"></path></g><g id="SvgjsG1029" class="text" transform="translate(781.3672627464841, 63.959999999999994) scale(1)" light-content="false" fill="#858585"><path d="M-65.04 -1.14C-65.04 -0.38 -64.66 0 -63.9 0L-48.72 0C-45.48 0 -42.61 -0.56 -40.11 -1.68C-37.61 -2.8 -35.68 -4.38 -34.32 -6.42C-32.96 -8.46 -32.28 -10.82 -32.28 -13.5L-32.28 -28.5C-32.28 -31.18 -32.96 -33.54 -34.32 -35.58C-35.68 -37.62 -37.61 -39.2 -40.11 -40.32C-42.61 -41.44 -45.48 -42 -48.72 -42L-63.9 -42C-64.66 -42 -65.04 -41.62 -65.04 -40.86ZM-53.28 -9.66C-53.6 -9.66 -53.76 -9.82 -53.76 -10.14L-53.76 -31.86C-53.76 -32.18 -53.6 -32.34 -53.28 -32.34L-48.36 -32.34C-46.92 -32.34 -45.76 -31.81 -44.88 -30.75C-44 -29.69 -43.56 -28.3 -43.56 -26.58L-43.56 -15.42C-43.6 -13.7 -44.06 -12.31 -44.94 -11.25C-45.82 -10.19 -46.94 -9.66 -48.3 -9.66Z M13.32 -32.34C14.08 -32.34 14.46 -32.72 14.46 -33.48L14.46 -40.86C14.46 -41.62 14.08 -42 13.32 -42L-14.82 -42C-15.58 -42 -15.96 -41.62 -15.96 -40.86L-15.96 -1.14C-15.96 -0.38 -15.58 0 -14.82 0L13.32 0C14.08 0 14.46 -0.38 14.46 -1.14L14.46 -8.52C14.46 -9.28 14.08 -9.66 13.32 -9.66L-4.2 -9.66C-4.52 -9.66 -4.68 -9.82 -4.68 -10.14L-4.68 -16.02C-4.68 -16.34 -4.52 -16.5 -4.2 -16.5L6.48 -16.5C7.24 -16.5 7.62 -16.88 7.62 -17.64L7.62 -24.96C7.62 -25.72 7.24 -26.1 6.48 -26.1L-4.2 -26.1C-4.52 -26.1 -4.68 -26.26 -4.68 -26.58L-4.68 -31.86C-4.68 -32.18 -4.52 -32.34 -4.2 -32.34Z M30.24 -1.14C30.24 -0.38 30.62 0 31.38 0L40.38 0C41.14 0 41.52 -0.38 41.52 -1.14L41.4 -20.88C41.4 -21.12 41.47 -21.25 41.61 -21.27C41.75 -21.29 41.88 -21.2 42 -21L53.88 -0.78C54.16 -0.26 54.62 0 55.26 0L63.9 0C64.66 0 65.04 -0.38 65.04 -1.14L65.04 -40.86C65.04 -41.62 64.66 -42 63.9 -42L54.9 -42C54.14 -42 53.76 -41.62 53.76 -40.86L53.82 -21.54C53.82 -21.26 53.74 -21.12 53.58 -21.12C53.46 -21.12 53.34 -21.2 53.22 -21.36L41.4 -41.22C41.12 -41.74 40.66 -42 40.02 -42L31.38 -42C30.62 -42 30.24 -41.62 30.24 -40.86Z"></path></g></g></svg>